<svg width="76" height="30" viewBox="0 0 76 30" fill="none" xmlns="http://www.w3.org/2000/svg">
  <path d="M0 4.8H7.2C8.8 4.8 10.1333 5.06667 11.2 5.6C12.2667 6.13333 13.0667 6.9 13.6 7.9C14.1333 8.9 14.4 10.0667 14.4 11.4C14.4 12.7333 14.1333 13.9 13.6 14.9C13.0667 15.9 12.2667 16.6667 11.2 17.2C10.1333 17.7333 8.8 18 7.2 18H3.2V24H0V4.8ZM7 15.2C8.26667 15.2 9.23333 14.8667 9.9 14.2C10.5667 13.5333 10.9 12.6 10.9 11.4C10.9 10.2 10.5667 9.26667 9.9 8.6C9.23333 7.93333 8.26667 7.6 7 7.6H3.2V15.2H7Z" fill="#0D0C22"/>
  <path d="M17.4766 24V4.8H27.8766V7.6H20.6766V12.8H27.0766V15.6H20.6766V21.2H27.8766V24H17.4766Z" fill="#0D0C22"/>
  <path d="M31.7531 24V4.8H42.1531V7.6H34.9531V12.8H41.3531V15.6H34.9531V21.2H42.1531V24H31.7531Z" fill="#0D0C22"/>
  <path d="M46.0297 24V4.8H56.4297V7.6H49.2297V12.8H55.6297V15.6H49.2297V21.2H56.4297V24H46.0297Z" fill="#0D0C22"/>
  <path d="M60.3062 24V4.8H70.7062V7.6H63.5062V12.8H69.9062V15.6H63.5062V21.2H70.7062V24H60.3062Z" fill="#0D0C22"/>
  <path d="M74.5828 24V4.8H76.0828V24H74.5828Z" fill="#0D0C22"/>
</svg>
